    <svg version="1.1" xmlns="http://www.w3.org/2000/svg" width="75%" height="100%">
      <path d="M0 0 C31.11118299 26.9097023 51.14580181 63.98348721 65.88671875 101.92919922 C67.15904904 105.18185004 68.4857019 108.40158155 69.83984375 111.62036133 C76.08236947 126.50383854 81.60867954 141.67271425 86.234375 157.13623047 C87.0144474 159.6115132 87.83451467 161.98709433 88.765625 164.40185547 C95.16461154 181.21662212 99.13946269 198.98034356 102.33984375 216.64404297 C102.50500488 217.52672852 102.67016602 218.40941406 102.84033203 219.31884766 C107.02831938 242.36793627 107.48372499 267.72954301 102.33984375 290.64404297 C102.04980469 291.95260254 102.04980469 291.95260254 101.75390625 293.28759766 C97.23306364 312.96861154 89.34409938 330.75435432 78.33984375 347.64404297 C77.64375 348.72814453 76.94765625 349.81224609 76.23046875 350.92919922 C72.08720765 357.15165156 67.58134959 362.91464333 62.71484375 368.58154297 C61.9254541 369.50386719 61.9254541 369.50386719 61.12011719 370.44482422 C57.97024803 374.03571426 54.65991942 377.18890842 50.98779297 380.24072266 C48.63744578 382.24217386 46.50906377 384.44968298 44.33984375 386.64404297 C20.2538416 408.72287828 -13.40702771 421.69254389 -45.66015625 424.64404297 C-47.12001953 424.7890625 -47.12001953 424.7890625 -48.609375 424.93701172 C-83.32823875 426.65209578 -119.06917516 408.62217967 -144.66015625 386.64404297 C-145.9440625 385.54576172 -145.9440625 385.54576172 -147.25390625 384.42529297 C-165.55852296 368.38050548 -179.30917781 348.39479775 -189.73486328 326.54956055 C-190.3699982 325.2415848 -191.02306349 323.94221028 -191.69091797 322.65063477 C-197.92220395 310.59774726 -200.9205338 296.87184788 -203.66015625 283.64404297 C-203.88832031 282.55349609 -204.11648437 281.46294922 -204.3515625 280.33935547 C-206.41060955 268.56103041 -206.01143396 256.55198365 -205.66015625 244.64404297 C-205.63501953 243.75249512 -205.60988281 242.86094727 -205.58398438 241.94238281 C-204.08822934 202.29724305 -189.91190827 161.34392639 -175.66015625 124.64404297 C-175.27408203 123.64824219 -174.88800781 122.65244141 -174.49023438 121.62646484 C-170.42871843 111.20842304 -166.1618454 100.8798722 -161.66015625 90.64404297 C-161.26441406 89.74041016 -160.86867187 88.83677734 -160.4609375 87.90576172 C-157.41254422 81.06966384 -154.07719736 74.38589362 -150.703125 67.70654297 C-149.39297544 65.11213858 -148.102936 62.50978181 -146.8359375 59.89404297 C-143.21034194 52.46360892 -139.30031701 45.48496569 -134.66015625 38.64404297 C-134.25200684 38.0269043 -133.84385742 37.40976562 -133.42333984 36.77392578 C-117.59838249 12.9129919 -96.369107 -9.99972041 -67.296875 -16.35986328 C-43.66686221 -21.03572258 -18.8474198 -15.39390729 0 0 Z " fill="#EBD735" transform="translate(205.66015625,18.35595703125)" />
      <path d="M0 0 C24.89566176 13.01101761 41.33235961 32.98677915 50.05737305 59.42431641 C52.1252974 66.06944503 53.23956934 72.50839404 53.57299805 79.45556641 C53.65251709 80.85935547 53.65251709 80.85935547 53.73364258 82.29150391 C54.98332754 107.42623348 49.97229327 129.38582904 33.19799805 148.64306641 C29.30557484 152.84688347 25.33361901 156.28758955 20.57299805 159.45556641 C19.74026367 160.03048828 18.9075293 160.60541016 18.04956055 161.19775391 C1.90904632 171.97351269 -15.13655435 176.60552071 -34.42700195 174.45556641 C-44.38620187 172.41776401 -53.25606488 167.3589707 -61.42700195 161.45556641 C-62.59295898 160.65699219 -62.59295898 160.65699219 -63.7824707 159.84228516 C-71.80425841 154.05720934 -78.49813913 146.02750175 -83.42700195 137.45556641 C-83.42700195 136.46556641 -83.42700195 135.47556641 -83.42700195 134.45556641 C-84.08700195 134.45556641 -84.74700195 134.45556641 -85.42700195 134.45556641 C-96.38957442 106.10897935 -98.35132247 77.42957229 -86.92700195 48.70556641 C-86.12173257 46.9424766 -85.29056859 45.19084653 -84.42700195 43.45556641 C-84.03770508 42.66279297 -83.6484082 41.87001953 -83.24731445 41.05322266 C-74.5342701 24.39593199 -60.19353909 9.78004627 -43.42700195 1.45556641 C-42.49758789 0.97861328 -41.56817383 0.50166016 -40.6105957 0.01025391 C-27.71174102 -6.561215 -13.06488045 -6.49808983 0 0 Z " fill="#4E421F" transform="translate(173.427001953125,177.54443359375)" />
      <path d="M0 0 C31.11118299 26.9097023 51.14580181 63.98348721 65.88671875 101.92919922 C67.15904904 105.18185004 68.4857019 108.40158155 69.83984375 111.62036133 C76.08236947 126.50383854 81.60867954 141.67271425 86.234375 157.13623047 C87.0144474 159.6115132 87.83451467 161.98709433 88.765625 164.40185547 C95.16461154 181.21662212 99.13946269 198.98034356 102.33984375 216.64404297 C102.50500488 217.52672852 102.67016602 218.40941406 102.84033203 219.31884766 C107.02831938 242.36793627 107.48372499 267.72954301 102.33984375 290.64404297 C102.04980469 291.95260254 102.04980469 291.95260254 101.75390625 293.28759766 C97.23306364 312.96861154 89.34409938 330.75435432 78.33984375 347.64404297 C77.64375 348.72814453 76.94765625 349.81224609 76.23046875 350.92919922 C72.08720765 357.15165156 67.58134959 362.91464333 62.71484375 368.58154297 C61.9254541 369.50386719 61.9254541 369.50386719 61.12011719 370.44482422 C57.97024803 374.03571426 54.65991942 377.18890842 50.98779297 380.24072266 C48.63744578 382.24217386 46.50906377 384.44968298 44.33984375 386.64404297 C20.2538416 408.72287828 -13.40702771 421.69254389 -45.66015625 424.64404297 C-47.12001953 424.7890625 -47.12001953 424.7890625 -48.609375 424.93701172 C-83.32823875 426.65209578 -119.06917516 408.62217967 -144.66015625 386.64404297 C-145.9440625 385.54576172 -145.9440625 385.54576172 -147.25390625 384.42529297 C-165.55852296 368.38050548 -179.30917781 348.39479775 -189.73486328 326.54956055 C-190.3699982 325.2415848 -191.02306349 323.94221028 -191.69091797 322.65063477 C-197.92220395 310.59774726 -200.9205338 296.87184788 -203.66015625 283.64404297 C-203.88832031 282.55349609 -204.11648437 281.46294922 -204.3515625 280.33935547 C-206.41060955 268.56103041 -206.01143396 256.55198365 -205.66015625 244.64404297 C-205.63501953 243.75249512 -205.60988281 242.86094727 -205.58398438 241.94238281 C-204.08822934 202.29724305 -189.91190827 161.34392639 -175.66015625 124.64404297 C-175.27408203 123.64824219 -174.88800781 122.65244141 -174.49023438 121.62646484 C-170.42871843 111.20842304 -166.1618454 100.8798722 -161.66015625 90.64404297 C-161.26441406 89.74041016 -160.86867187 88.83677734 -160.4609375 87.90576172 C-157.41254422 81.06966384 -154.07719736 74.38589362 -150.703125 67.70654297 C-149.39297544 65.11213858 -148.102936 62.50978181 -146.8359375 59.89404297 C-143.21034194 52.46360892 -139.30031701 45.48496569 -134.66015625 38.64404297 C-134.25200684 38.0269043 -133.84385742 37.40976562 -133.42333984 36.77392578 C-117.59838249 12.9129919 -96.369107 -9.99972041 -67.296875 -16.35986328 C-43.66686221 -21.03572258 -18.8474198 -15.39390729 0 0 Z M-68.66015625 1.64404297 C-69.72878906 2.00884766 -70.79742187 2.37365234 -71.8984375 2.74951172 C-95.06338448 10.90286663 -111.60029971 31.09049606 -123.66015625 51.64404297 C-124.17964844 52.49998047 -124.69914062 53.35591797 -125.234375 54.23779297 C-131.51869629 64.84366123 -137.75872467 75.95975072 -141.828125 87.62060547 C-142.83936382 90.07986232 -144.13674051 92.28252518 -145.47265625 94.58154297 C-148.57234553 100.07925056 -150.61106642 105.74218147 -152.56762695 111.71801758 C-153.89644974 115.72679566 -155.45224072 119.02395811 -157.66015625 122.64404297 C-158.90576278 125.43922367 -160.00417945 128.28644767 -161.09765625 131.14404297 C-161.40477539 131.9392334 -161.71189453 132.73442383 -162.02832031 133.55371094 C-164.2085363 139.27361234 -166.10680922 145.0403748 -167.8359375 150.91357422 C-168.50953868 153.14507767 -169.24672125 155.28924444 -170.09765625 157.45654297 C-171.91577479 162.12602774 -173.34183639 166.9231472 -174.81518555 171.70947266 C-175.95221819 175.39953068 -177.13269538 179.06202225 -178.41015625 182.70654297 C-179.63940052 186.31873564 -180.16013699 189.85818285 -180.66015625 193.64404297 C-180.96880615 194.5531543 -181.27745605 195.46226562 -181.59545898 196.39892578 C-182.73629736 199.87611536 -183.45574033 203.28256233 -184.1328125 206.87841797 C-184.2607872 207.55648499 -184.3887619 208.234552 -184.52061462 208.9331665 C-184.78901352 210.36146835 -185.0553022 211.79016819 -185.31958008 213.21923828 C-185.71914386 215.37509179 -186.12763454 217.5291152 -186.53710938 219.68310547 C-188.79939407 231.70645433 -189.84104054 243.21085861 -189.84765625 255.45654297 C-189.85990234 256.63796875 -189.87214844 257.81939453 -189.88476562 259.03662109 C-189.90981714 274.27629109 -186.7411355 288.35233878 -181.66015625 302.64404297 C-181.34691406 303.56185547 -181.03367188 304.47966797 -180.7109375 305.42529297 C-173.85253805 324.48442406 -163.4761014 341.87180289 -149.66015625 356.64404297 C-148.52993614 357.95205052 -147.40464558 359.26433953 -146.28515625 360.58154297 C-134.9997574 373.40936535 -120.82880829 387.25178519 -104.66015625 393.64404297 C-103.32697011 394.42673749 -101.99804628 395.21670813 -100.671875 396.01123047 C-95.56859261 398.8669506 -90.42843053 400.3951447 -84.78515625 401.83154297 C-83.86863281 402.07839844 -82.95210938 402.32525391 -82.0078125 402.57958984 C-71.85604404 405.25674397 -62.1177332 407.01645539 -51.59765625 406.95654297 C-50.61047607 406.95380371 -49.6232959 406.95106445 -48.60620117 406.94824219 C-38.46944091 406.80621817 -26.79185272 406.43864111 -17.66015625 401.64404297 C-16.603125 401.34884766 -15.54609375 401.05365234 -14.45703125 400.74951172 C10.45474722 393.49639103 31.72662738 376.18205829 49.33984375 357.64404297 C49.89027344 357.06525391 50.44070313 356.48646484 51.0078125 355.89013672 C60.0975021 345.9268385 66.86050554 334.39113583 73.33984375 322.64404297 C73.74332031 321.95004395 74.14679688 321.25604492 74.5625 320.54101562 C95.98535877 283.28562867 93.22115939 238.99206649 82.61962891 198.921875 C79.58835904 187.77744077 76.1756934 176.75213229 72.64453125 165.75732422 C71.62340788 162.56937417 70.6809383 159.36754039 69.77734375 156.14404297 C68.45765192 151.65396723 66.51964518 147.53070052 64.53515625 143.30029297 C62.8253829 139.50079663 61.54700365 135.62698862 60.33984375 131.64404297 C60.06011719 130.72623047 59.78039062 129.80841797 59.4921875 128.86279297 C58.76630409 126.45893721 58.04892275 124.0529 57.33984375 121.64404297 C56.67984375 121.64404297 56.01984375 121.64404297 55.33984375 121.64404297 C55.11296875 120.40654297 54.88609375 119.16904297 54.65234375 117.89404297 C52.17635447 106.83726696 46.50411417 96.52987089 41.58984375 86.39404297 C41.12913483 85.44126465 41.12913483 85.44126465 40.65911865 84.46923828 C35.90226294 74.64879221 30.93972424 65.01349281 25.33984375 55.64404297 C24.67726562 54.51482422 24.0146875 53.38560547 23.33203125 52.22216797 C18.80115326 44.6529365 13.79835758 37.57176426 8.33984375 30.64404297 C7.80488281 29.96470703 7.26992187 29.28537109 6.71875 28.58544922 C3.02291174 24.08834521 -1.22383405 20.39317017 -5.66015625 16.64404297 C-6.21445313 16.14001953 -6.76875 15.63599609 -7.33984375 15.11669922 C-20.40494518 3.33310295 -34.00349151 -1.44871955 -51.34765625 -1.66845703 C-52.14333008 -1.68610107 -52.93900391 -1.70374512 -53.75878906 -1.72192383 C-59.34367313 -1.71554309 -63.56059881 -0.54071125 -68.66015625 1.64404297 Z " fill="#8BCC35" transform="translate(205.66015625,18.35595703125)" />
    </svg>