<svg version="1.1" xmlns="http://www.w3.org/2000/svg" width="600" height="625">
  <path d="M0 0 C8.88807574 4.54029862 14.20604801 11.07960537 18.78125 19.74609375 C20.31823662 22.58853375 22.07256092 25.25766806 23.8515625 27.953125 C25 30 25 30 25.7109375 32.359375 C26.51454719 35.0035101 27.28570032 36.82249308 29 39 C32.7030699 40.85735739 36.55546981 41.66471996 40.59863281 42.49902344 C45.44103962 43.50925308 50.24957826 44.67137473 55.0625 45.8125 C56.14490967 46.06829834 57.22731934 46.32409668 58.3425293 46.58764648 C89.08083425 53.98849682 117.61536655 66.63681504 144.49145508 83.10302734 C145.69838013 83.84093506 145.69838013 83.84093506 146.9296875 84.59375 C148.00065674 85.25407227 148.00065674 85.25407227 149.09326172 85.92773438 C151.11350583 87.14304573 151.11350583 87.14304573 154 88 C155.34726461 89.31925495 156.67888711 90.65455722 158 92 C159.62393579 93.21727407 161.27192168 94.40285675 162.9375 95.5625 C184.66203774 111.1949716 205.0998482 130.78667782 221.3125 152.0625 C221.8701001 152.793479 222.4277002 153.52445801 223.00219727 154.27758789 C230.66461482 164.41860429 237.62875088 175.00121204 244 186 C244.61359375 187.03125 245.2271875 188.0625 245.859375 189.125 C255.74792454 205.98919302 262.66691918 223.52399444 269 242 C269.26441895 242.7513623 269.52883789 243.50272461 269.80126953 244.27685547 C275.95218275 261.78921923 279.25997211 280.54761118 281 299 C281.11085938 300.0725 281.22171875 301.145 281.3359375 302.25 C284.29277854 336.77311706 281.76253185 372.92377065 271 406 C269.35077751 411.13854971 267.98112371 415.94072858 267.375 421.3125 C265.14359833 435.43871221 257.1430799 448.94633885 250.875 461.625 C250.39691895 462.5953418 249.91883789 463.56568359 249.42626953 464.56542969 C246.02073263 471.33012232 242.15524245 477.67277991 238 484 C237.02582585 485.51809069 236.05185497 487.03631186 235.078125 488.5546875 C228.95770129 497.95547069 222.46502962 506.63299542 215 515 C213.79106005 516.39530797 212.5826463 517.79107221 211.375 519.1875 C210.2522429 520.46031533 209.12711684 521.73104374 208 523 C207.29230469 523.80050781 206.58460938 524.60101562 205.85546875 525.42578125 C195.17720722 537.4138125 195.17720722 537.4138125 191 541 C190.34 541 189.68 541 189 541 C188.67 541.99 188.34 542.98 188 544 C186.4089357 545.43802182 184.7513985 546.80325335 183.0625 548.125 C179.25091237 551.15951557 175.57430811 554.25210549 172 557.5625 C166.95899767 562.14885497 161.5815257 566.10156323 156 570 C155.27288818 570.51997559 154.54577637 571.03995117 153.79663086 571.57568359 C147.87083334 575.78671545 141.82241392 579.68041114 135.5625 583.375 C134.61673096 583.93372803 133.67096191 584.49245605 132.6965332 585.06811523 C123.72116263 590.29231615 114.47961119 594.77668028 105 599 C104.28996826 599.32291016 103.57993652 599.64582031 102.84838867 599.97851562 C63.75662639 617.64377542 19.90515805 626.27934696 -23 625 C-23.8264502 624.98066406 -24.65290039 624.96132813 -25.50439453 624.94140625 C-39.49799057 624.59150203 -53.186204 623.24829013 -67 621 C-67.85384277 620.86223145 -68.70768555 620.72446289 -69.58740234 620.58251953 C-102.24448853 615.17198907 -133.3091022 604.57875161 -162 588 C-163.13566406 587.34515625 -164.27132812 586.6903125 -165.44140625 586.015625 C-174.36606825 580.79582862 -182.8703581 575.06509431 -191.32910156 569.12597656 C-192.82828376 568.11571527 -194.39208409 567.20294921 -195.9609375 566.3046875 C-196.63382812 565.87414062 -197.30671875 565.44359375 -198 565 C-198 564.34 -198 563.68 -198 563 C-198.71929687 562.7525 -199.43859375 562.505 -200.1796875 562.25 C-208.6570965 558.49269961 -215.70852635 550.54013911 -222.4609375 544.3203125 C-224.54494903 542.41584658 -226.65871086 540.57384698 -228.8125 538.75 C-232.79062341 535.29291978 -236.51702431 531.59214376 -240.25 527.875 C-240.85303955 527.27655273 -241.4560791 526.67810547 -242.07739258 526.06152344 C-251 517.10780945 -251 517.10780945 -251 514 C-251.66 514 -252.32 514 -253 514 C-254.60967407 511.97041095 -256.09575904 509.94245572 -257.5625 507.8125 C-258.00650146 507.17683105 -258.45050293 506.54116211 -258.90795898 505.88623047 C-259.82926278 504.56577693 -260.747935 503.24348368 -261.6640625 501.91943359 C-262.87462899 500.18012918 -264.10369912 498.4566223 -265.34375 496.73828125 C-270.33195842 489.73898176 -274.64491229 482.55514904 -278.76171875 475.01953125 C-280.39212973 472.03790971 -282.13369428 469.14586016 -283.91796875 466.25390625 C-287.2504126 460.73107427 -289.96432912 454.99501117 -292.625 449.125 C-293.0890625 448.12597656 -293.553125 447.12695312 -294.03125 446.09765625 C-298.15346484 437.07303337 -301.49331034 427.9776139 -303.48974609 418.24853516 C-304.27105792 414.80552945 -305.35959496 411.46775301 -306.41137695 408.09936523 C-325.84457278 345.30344904 -321.1574221 276.14039657 -295 216 C-294.59313965 215.06285156 -294.1862793 214.12570313 -293.76708984 213.16015625 C-292.48340981 210.2254737 -291.18372848 207.29859229 -289.875 204.375 C-289.47949951 203.4866748 -289.08399902 202.59834961 -288.67651367 201.68310547 C-285.86131423 195.50951411 -282.58799369 189.75435195 -279 184 C-278.57074219 183.2992334 -278.14148438 182.5984668 -277.69921875 181.87646484 C-270.42867543 170.01262843 -262.86487818 158.80903534 -253.78125 148.25390625 C-250.45553815 144.38580857 -247.26143437 140.41730218 -244.0703125 136.4375 C-241.83699531 133.80808505 -239.46114707 131.41719802 -237 129 C-236.01634343 127.9966369 -235.03466286 126.99133381 -234.0546875 125.984375 C-227.37667675 119.1691592 -220.54961565 112.85908976 -213 107 C-211.9489323 106.16963329 -210.89816171 105.3388904 -209.84765625 104.5078125 C-203.62506556 99.62009487 -197.26878176 95.06429359 -190.63671875 90.73828125 C-188.51458817 89.33924701 -186.47115427 87.8966178 -184.4375 86.375 C-180.72427496 83.6744727 -176.69906325 81.57686734 -172.6484375 79.4296875 C-170.95680137 78.5165034 -169.28546677 77.56393328 -167.64453125 76.5625 C-164.28132457 74.57537641 -160.81374131 72.85392564 -157.3125 71.125 C-155.97524616 70.4609662 -154.6380068 69.79690326 -153.30078125 69.1328125 C-152.60734619 68.7910498 -151.91391113 68.44928711 -151.19946289 68.09716797 C-149.67891631 67.33866688 -148.16543973 66.56588598 -146.65795898 65.78173828 C-140.40793369 62.5582046 -134.06019465 59.98090762 -127.4375 57.625 C-126.3546875 57.23924805 -125.271875 56.85349609 -124.15625 56.45605469 C-96.86121706 46.90279316 -69.20091507 41.11262796 -40.4440918 38.30957031 C-38.20465463 38.02592169 -36.14390104 37.70686592 -34 37 C-31.42853023 33.19585742 -30.11790028 28.96004511 -29.5625 24.4375 C-28.62709596 18.72114196 -25.33242864 13.83297976 -21 10 C-20.360625 9.87625 -19.72125 9.7525 -19.0625 9.625 C-16.75292617 9.14068474 -16.75292617 9.14068474 -15.1875 6.6875 C-11.30869248 1.92210791 -6.31918242 -1.26383648 0 0 Z " fill="#F59529" transform="translate(318,0)" />
  <path d="M0 0 C8.88807574 4.54029862 14.20604801 11.07960537 18.78125 19.74609375 C19.94965857 21.90690062 21.22129603 23.94321464 22.5625 26 C24.81020494 29.527059 26.5009879 33.16194964 28.10546875 37.01953125 C29.04645693 39.24629523 29.04645693 39.24629523 31 42 C34.44015507 52.9950054 34.13658811 64.61765741 34 76 C34.66902344 75.55269531 35.33804688 75.10539062 36.02734375 74.64453125 C50.78184606 65.35612644 67.8734285 60.92377579 85.2109375 64.69921875 C90.68040829 66.64556196 94.3964163 69.47242047 98 74 C98.875 76.4375 98.875 76.4375 99 79 C99.061875 80.19625 99.12375 81.3925 99.1875 82.625 C99 86 99 86 97 89 C96.31974363 90.99541868 95.65509503 92.99617991 95 95 C94.46375 96.155 93.9275 97.31 93.375 98.5 C92.0038181 101.99028121 91.7291724 104.2986895 92 108 C92.556875 108.226875 93.11375 108.45375 93.6875 108.6875 C96.64238387 110.36459625 98.71932146 112.52830016 101 115 C101.67289062 115.72574219 102.34578125 116.45148438 103.0390625 117.19921875 C114.30505255 129.52986422 123.76974737 141.74116641 129.65625 157.453125 C130.73740318 160.30686652 131.92497722 163.03877571 133.1875 165.8125 C138.03456836 178.04171431 138.70797053 192.03386234 138 205 C137.95746094 205.83499023 137.91492188 206.66998047 137.87109375 207.53027344 C137.29261438 217.70928551 136.38554216 226.82744863 132.21875 236.21484375 C131.05179167 238.88164275 130.28433673 241.43569607 129.5625 244.25 C128.28391642 248.73230721 126.19053669 252.1065608 123.49609375 255.8828125 C121.43081989 258.80547158 119.73122869 261.87047122 118 265 C117.34 265 116.68 265 116 265 C115.71125 265.5775 115.4225 266.155 115.125 266.75 C114.75375 267.4925 114.3825 268.235 114 269 C113.731875 269.66 113.46375 270.32 113.1875 271 C111.60316809 273.66834848 109.44156924 275.12186982 107 277 C106.67 277.66 106.34 278.32 106 279 C105.34 279 104.68 279 104 279 C103.76023437 279.75152344 103.52046875 280.50304687 103.2734375 281.27734375 C101.80803672 284.41042455 100.4138598 285.56582463 97.625 287.5625 C95.27049071 289.26735372 93.13455403 290.85957147 91.12109375 292.9609375 C88.46913438 295.5103349 85.60241083 297.19379838 82.4375 299.0625 C78.1725428 301.4912957 78.1725428 301.4912957 74.4140625 304.5859375 C72.49452991 306.50547009 70.38617198 307.41209299 67.9375 308.5625 C65.12862483 309.88650724 63.20354957 310.79645043 61 313 C58.375 313.125 58.375 313.125 56 313 C56 313.66 56 314.32 56 315 C53.87607494 315.6700834 51.75082476 316.33596797 49.625 317 C48.44164062 317.37125 47.25828125 317.7425 46.0390625 318.125 C43 319 43 319 41 319 C41 319.66 41 320.32 41 321 C32.25735169 324.56181968 23.32222831 325.21711289 14 326 C13.30342285 326.05929687 12.6068457 326.11859375 11.88916016 326.1796875 C-20.60968853 328.81155377 -52.98029775 327.82486288 -83 314 C-86.24436652 312.57444501 -89.44261508 311.17298153 -92.83203125 310.12109375 C-124.45311155 298.93089641 -149.8917979 268.23669812 -164 239 C-170.2079426 223.94623503 -172.15497798 207.60312194 -172.25 191.4375 C-172.270625 190.55642578 -172.29125 189.67535156 -172.3125 188.76757812 C-172.34901634 182.5826222 -171.16455604 177.75271612 -169 172 C-168.67386719 170.81792969 -168.34773437 169.63585937 -168.01171875 168.41796875 C-166.87294086 164.57074615 -165.42845043 160.97918774 -163.8125 157.3125 C-163.51005371 156.6213208 -163.20760742 155.9301416 -162.89599609 155.21801758 C-160.42052701 149.68427816 -157.56082276 144.52151682 -154.3828125 139.35546875 C-152.87712836 136.97735657 -152.87712836 136.97735657 -152 134 C-150.66666667 132.66666667 -149.33333333 131.33333333 -148 130 C-147.11246004 128.80084727 -146.23889131 127.59130023 -145.375 126.375 C-139.98738705 119.09628048 -133.67880936 112.42072414 -125.69140625 108.03515625 C-123.82948398 106.89564262 -122.53557886 105.54357666 -121 104 C-114.99331104 100 -114.99331104 100 -112 100 C-111.505 98.515 -111.505 98.515 -111 97 C-108.29125977 95.421875 -108.29125977 95.421875 -104.69140625 93.75 C-104.05065659 93.45061523 -103.40990692 93.15123047 -102.7497406 92.84277344 C-101.38763593 92.20920085 -100.02313658 91.58075538 -98.65649414 90.95703125 C-96.59617342 90.01538997 -94.54485051 89.0561109 -92.49414062 88.09375 C-75.08245829 80 -75.08245829 80 -67 80 C-67 79.34 -67 78.68 -67 78 C-61.89595488 76.0343645 -57.02007694 75.39987989 -51.625 74.875 C-50.79355469 74.78863281 -49.96210938 74.70226562 -49.10546875 74.61328125 C-47.07092853 74.40281157 -45.0355403 74.20056686 -43 74 C-42.85304688 72.07800781 -42.85304688 72.07800781 -42.703125 70.1171875 C-40.51137783 43.87978726 -40.51137783 43.87978726 -33 35 C-31.20694765 31.4138953 -30.0607189 28.55658996 -29.625 24.5625 C-28.61244298 18.79092496 -25.39106604 13.88485735 -21 10 C-20.360625 9.87625 -19.72125 9.7525 -19.0625 9.625 C-16.75292617 9.14068474 -16.75292617 9.14068474 -15.1875 6.6875 C-11.30869248 1.92210791 -6.31918242 -1.26383648 0 0 Z " fill="#F59E5E" transform="translate(318,0)" />
  <path d="M0 0 C8.88807574 4.54029862 14.20604801 11.07960537 18.78125 19.74609375 C19.94965857 21.90690062 21.22129603 23.94321464 22.5625 26 C24.81020494 29.527059 26.5009879 33.16194964 28.10546875 37.01953125 C29.04645693 39.24629523 29.04645693 39.24629523 31 42 C34.44015507 52.9950054 34.13658811 64.61765741 34 76 C34.66902344 75.55269531 35.33804688 75.10539062 36.02734375 74.64453125 C50.78184606 65.35612644 67.8734285 60.92377579 85.2109375 64.69921875 C90.68040829 66.64556196 94.3964163 69.47242047 98 74 C98.875 76.4375 98.875 76.4375 99 79 C99.061875 80.19625 99.12375 81.3925 99.1875 82.625 C99 86 99 86 97 89 C96.3274266 90.99802139 95.66157547 92.99831013 95 95 C88.28069049 110.37437579 73.33590655 136.20177976 57.125 143.25 C56.42375 143.4975 55.7225 143.745 55 144 C54.67 144.99 54.34 145.98 54 147 C53.34 147 52.68 147 52 147 C52 147.66 52 148.32 52 149 C50.1640625 150.48046875 50.1640625 150.48046875 47.625 152.1875 C46.71105469 152.80753906 45.79710937 153.42757812 44.85546875 154.06640625 C43.44201172 155.02353516 43.44201172 155.02353516 42 156 C40.31143752 157.20684815 38.62390086 158.41513313 36.9375 159.625 C33.06749239 162.33887326 29.11596909 164.71496502 24.953125 166.94921875 C23.42160587 167.77317604 21.92233389 168.65711348 20.4375 169.5625 C17.62141619 171.22326738 14.72015572 172.63036563 11.76953125 174.03515625 C9.82364788 174.98814231 9.82364788 174.98814231 8 177 C6.33271135 177.73516055 4.64173093 178.41758959 2.9375 179.0625 C-0.28488289 180.12070289 -0.28488289 180.12070289 -3 182 C-3.09152037 183.60564145 -3.11462178 185.21524503 -3.11010742 186.82348633 C-3.11068649 187.85157913 -3.11126556 188.87967194 -3.11186218 189.93891907 C-3.10975235 191.05864609 -3.10764252 192.17837311 -3.10546875 193.33203125 C-3.11892458 195.68034773 -3.13394769 198.02865566 -3.15039062 200.37695312 C-3.17324654 204.09706108 -3.1874876 207.81620775 -3.17504883 211.53637695 C-3.16625662 215.11480508 -3.19508277 218.69130267 -3.23046875 222.26953125 C-3.21823776 223.38318558 -3.20600677 224.4968399 -3.19340515 225.64424133 C-3.23920611 228.55251029 -3.33444559 231.16851454 -4 234 C-7.84083674 237.62793077 -10.83455015 238.55396593 -16.0625 238.5 C-19.96852982 238.36915285 -21.73884016 238.14850265 -25.1875 236.1875 C-30.06511013 230.30072915 -28.41538152 220.19889101 -27.83154297 212.89160156 C-27.54229261 210.04473372 -27.20349015 207.20534793 -26.85668945 204.36499023 C-26.03544218 197.58844063 -25.42697723 190.80354514 -24.875 184 C-24.78750488 182.96174072 -24.70000977 181.92348145 -24.60986328 180.85375977 C-24.37445688 177.90360121 -24.17682115 174.95420706 -24 172 C-23.93804443 171.12561279 -23.87608887 170.25122559 -23.81225586 169.3503418 C-23.54712213 162.98528676 -25.00645475 158.47864741 -27.8125 152.8125 C-28.52758015 151.2982887 -29.24242722 149.78396731 -29.95703125 148.26953125 C-30.47946411 147.18019287 -30.47946411 147.18019287 -31.01245117 146.06884766 C-33.83852576 140.14841352 -35.90545049 134.32501546 -37.5625 128 C-37.77068359 127.25105469 -37.97886719 126.50210938 -38.19335938 125.73046875 C-41.77587076 112.18655425 -42.34920937 98.66902181 -42.31567383 84.74804688 C-42.31250405 82.00350511 -42.33610737 79.26003538 -42.36132812 76.515625 C-42.40816171 63.30082306 -41.62907414 50.19632731 -36 38 C-35.00261437 36.99739245 -34.00259402 35.99739923 -33 35 C-31.21885482 31.43770964 -30.0581958 28.53346152 -29.625 24.5625 C-28.61244298 18.79092496 -25.39106604 13.88485735 -21 10 C-20.360625 9.87625 -19.72125 9.7525 -19.0625 9.625 C-16.75292617 9.14068474 -16.75292617 9.14068474 -15.1875 6.6875 C-11.30869248 1.92210791 -6.31918242 -1.26383648 0 0 Z " fill="#198C5E" transform="translate(318,0)" />
  <path d="M0 0 C0.66 0.33 1.32 0.66 2 1 C1.34 1.66 0.68 2.32 0 3 C-0.27827252 5.6215642 -0.27827252 5.6215642 -0.1953125 8.6640625 C-0.18564453 10.34628906 -0.18564453 10.34628906 -0.17578125 12.0625 C-0.15902344 13.238125 -0.14226562 14.41375 -0.125 15.625 C-0.11597656 16.80835938 -0.10695313 17.99171875 -0.09765625 19.2109375 C-0.07402812 22.14082523 -0.04108514 25.0703134 0 28 C0.89460938 28.02578125 1.78921875 28.0515625 2.7109375 28.078125 C13.74776765 28.59584411 24.04259794 30.68939733 32 39 C33.31477201 42.61201102 33.07330591 46.18809245 33 50 C29.61973505 51.48731658 26.43415742 52.87843592 22.875 53.875 C19.35165979 55.25369834 17.50542477 57.20824098 15 60 C14.67 60.33 14.34 60.66 14 61 C13.92755947 63.01964199 13.91622812 65.04167124 13.9375 67.0625 C13.94652344 68.16722656 13.95554687 69.27195312 13.96484375 70.41015625 C13.97644531 71.26480469 13.98804688 72.11945313 14 73 C12.31768531 73.967407 10.62884803 74.92347446 8.9375 75.875 C7.99777344 76.40867187 7.05804688 76.94234375 6.08984375 77.4921875 C-0.41910645 80.66848937 -6.38021985 81.3873512 -13.5 81.375 C-14.80807617 81.3747583 -14.80807617 81.3747583 -16.14257812 81.37451172 C-25.47313693 81.21240435 -34.71599618 79.50747266 -43 75 C-43 74.34 -43 73.68 -43 73 C-43.5775 72.773125 -44.155 72.54625 -44.75 72.3125 C-50.66716472 68.86082058 -53.28041813 62.36686209 -55 56 C-55.78749395 49.19812914 -55.75021763 42.90943384 -52 37 C-45.64609902 30.44152266 -40.20794049 26.19516084 -30.8359375 25.94140625 C-28.89052999 25.93796913 -26.94512146 25.96646342 -25 26 C-24.67 24.68 -24.34 23.36 -24 22 C-24.0721875 22.7528125 -24.144375 23.505625 -24.21875 24.28125 C-24.778215 30.68401614 -25.14876704 37.07468422 -25.25 43.5 C-25.27578125 44.8096875 -25.3015625 46.119375 -25.328125 47.46875 C-24.9812296 51.20200521 -24.26534447 53.05285283 -22 56 C-19.32344199 57.33827901 -17.17565948 57.20578556 -14.1875 57.25 C-13.14980469 57.27578125 -12.11210937 57.3015625 -11.04296875 57.328125 C-7.25472233 56.9196363 -5.80987869 56.63615905 -3 54 C-2.22029924 50.15054585 -2.32746049 46.31783371 -2.36328125 42.40234375 C-2.35290329 41.2571376 -2.34252533 40.11193146 -2.33183289 38.93202209 C-2.30206238 35.26687812 -2.30554144 31.60274354 -2.3125 27.9375 C-2.30362665 24.2689691 -2.28774313 20.60071099 -2.2610321 16.93226624 C-2.24604111 14.64751266 -2.24235794 12.36265273 -2.25080872 10.0778656 C-2.24707748 9.04662064 -2.24334625 8.01537567 -2.23950195 6.95288086 C-2.24213799 5.58745399 -2.24213799 5.58745399 -2.24482727 4.19444275 C-2 2 -2 2 0 0 Z " fill="#F48D48" transform="translate(316,180)" />
  <path d="M0 0 C2.49103502 2.35638448 4.68238627 4.43695747 6.375 7.4375 C8.62173756 10.98043231 11.47009586 13.72357202 15 16 C16.65986595 16.36569647 18.3265261 16.70272238 20 17 C20.00907838 24.47529939 19.97186946 31.9493374 19.90234375 39.42431641 C19.88416615 41.96755674 19.8766184 44.51089602 19.87988281 47.05419922 C19.88273462 50.70878934 19.84747038 54.36131966 19.8046875 58.015625 C19.8183284 59.72362274 19.8183284 59.72362274 19.83224487 61.46612549 C19.77753514 64.43205172 19.67437971 67.11124704 19 70 C15.16539059 73.64053897 12.16819279 74.55399425 6.9375 74.5 C3.03147018 74.36915285 1.26115984 74.14850265 -2.1875 72.1875 C-7.06511013 66.30072915 -5.41538152 56.19889101 -4.83154297 48.89160156 C-4.54242385 46.0460255 -4.2046226 43.20803233 -3.85449219 40.36938477 C-2.892406 32.49083748 -2.29121147 24.59175331 -1.69775391 16.67797852 C-1.27269089 11.09200885 -0.75221573 5.55175153 0 0 Z " fill="#4A402D" transform="translate(295,164)" />
  <path d="M0 0 C6.37938602 6.05223801 6.25413551 10.41686421 6.5625 18.8125 C6.6042334 19.92367187 6.6459668 21.03484375 6.68896484 22.1796875 C7.0448501 32.95211622 7.10961829 43.72250857 7.125 54.5 C7.1275882 55.35453766 7.13017639 56.20907532 7.13284302 57.08950806 C7.13867749 59.528465 7.13712856 61.96729218 7.1328125 64.40625 C7.13479141 65.1446965 7.13677032 65.88314301 7.1388092 66.64396667 C7.11530843 71.76938314 7.11530843 71.76938314 6 74 C-0.46850394 73.38976378 -0.46850394 73.38976378 -2.875 71.625 C-8.16278342 63.98709061 -4.94702738 49.22700538 -3.85449219 40.36938477 C-2.892406 32.49083748 -2.29121147 24.59175331 -1.69775391 16.67797852 C-1.27269089 11.09200885 -0.75221573 5.55175153 0 0 Z " fill="#66553B" transform="translate(295,164)" />
  <path d="M0 0 C0.33 0 0.66 0 1 0 C1.06706661 4.00164102 1.04805735 7.99813363 1 12 C0.99613281 13.09828125 0.99226563 14.1965625 0.98828125 15.328125 C0.48889823 30.68845794 -3.46954125 46.17516 -10.5625 59.8125 C-10.92601562 60.51745605 -11.28953125 61.22241211 -11.6640625 61.94873047 C-13.38583674 65.02277632 -14.61949523 66.8014525 -17.77734375 68.44921875 C-18.51082031 68.63097656 -19.24429687 68.81273437 -20 69 C-18.89401049 65.78257597 -17.45128128 63.0364988 -15.625 60.1875 C-11.10520363 53.05656028 -8.28755893 46.18641202 -5.9296875 38.05078125 C-5 35 -5 35 -3.99511719 32.75 C-2.80169004 29.45197168 -2.47531741 26.44089048 -2.1484375 22.94921875 C-2.08467926 22.29041214 -2.02092102 21.63160553 -1.95523071 20.95283508 C-1.7547886 18.86498682 -1.56474178 16.77634509 -1.375 14.6875 C-1.24027081 13.26490868 -1.10486116 11.84238163 -0.96875 10.41992188 C-0.63795744 6.9473233 -0.31647541 3.47393603 0 0 Z M-22 69 C-21.01 69.495 -21.01 69.495 -20 70 C-20.99 70.495 -20.99 70.495 -22 71 C-22 70.34 -22 69.68 -22 69 Z " fill="#F7A534" transform="translate(456,196)" />
  <path d="M0 0 C-3.55639236 2.30119506 -6.94718288 3.77472971 -11 5 C-11.66 4.34 -12.32 3.68 -13 3 C-11.21189234 2.30329584 -9.41937948 1.61788811 -7.625 0.9375 C-6.62726563 0.55464844 -5.62953125 0.17179687 -4.6015625 -0.22265625 C-2 -1 -2 -1 0 0 Z " fill="#F8AC39" transform="translate(372,316)" />
</svg>